<svg xmlns="http://www.w3.org/2000/svg" xmlns:xlink="http://www.w3.org/1999/xlink" width="600" height="183.674" viewBox="0 0 600 183.674"><defs><path id="e" d="M14.528 134.523l73.995-43.002 73.734 42.571-73.995 43.001z"/></defs><use xlink:href="#e" overflow="visible" fill="#69B76B"/><clipPath id="f"><use xlink:href="#e" overflow="visible"/></clipPath><path clip-path="url(#f)" fill="#69B76B" d="M14.528 134.523l73.995-43.002 73.734 42.571-73.995 43.001z"/><defs><path id="g" d="M14.768 49.582L88.764 6.581l-.241 84.724-73.995 43.003z"/></defs><use xlink:href="#g" overflow="visible" fill="#457745"/><clipPath id="h"><use xlink:href="#g" overflow="visible"/></clipPath><path clip-path="url(#h)" fill="#457745" d="M14.768 49.582L88.764 6.581l-.241 84.724-73.995 43.003z"/><radialGradient id="i" cx="71.909" cy="101.649" r="54.789" gradientUnits="userSpaceOnUse"><stop offset="0" stop-color="#1a1a1a"/><stop offset=".423" stop-color="#1d1d1d"/><stop offset=".768" stop-color="#272727"/><stop offset="1" stop-color="#333"/></radialGradient><path opacity=".3" fill="url(#i)" d="M129.291 153.717L88.764 49.582H14.528L55.4 110.556z"/><g><defs><path id="j" d="M14.528 49.582L88.523 6.581l73.734 42.57-73.995 43.002z"/></defs><use xlink:href="#j" overflow="visible" fill="#69B76B"/><clipPath id="k"><use xlink:href="#j" overflow="visible"/></clipPath><path clip-path="url(#k)" fill="#69B76B" d="M14.528 49.582L88.523 6.581l73.734 42.57-73.995 43.002z"/></g><g><defs><path id="l" d="M88.393 177.093l.241-84.724 73.994-43.003-.24 84.726z"/></defs><use xlink:href="#l" overflow="visible" fill="#457745"/><clipPath id="m"><use xlink:href="#l" overflow="visible"/></clipPath><path clip-path="url(#m)" fill="#457745" d="M88.393 177.093l.241-84.724 73.994-43.003-.24 84.726z"/></g><g fill="#FFF"><path d="M246.799 96.877v35.859h-8.606V99.194c0-10.262-6.179-16.33-16.44-16.33-12.358.11-19.64 8.827-19.64 21.295v28.577h-8.606v-81.87h8.606v36.742c3.972-9.048 11.917-13.24 22.619-13.351 13.902.001 22.067 8.607 22.067 22.62zM316.088 107.028h-47.444c1.545 11.364 9.82 18.536 21.074 18.536 7.172 0 13.461-2.538 17.985-7.282l4.744 5.075c-5.517 6.179-13.682 9.71-23.392 9.71-17.102 0-28.908-12.026-28.908-29.35 0-17.323 11.916-29.349 28.798-29.349 18.758-.11 28.026 12.91 27.143 32.66zm-7.723-7.061c-.552-11.145-8.055-18.206-19.419-18.206-11.034 0-18.978 7.172-20.302 18.206h39.721zM361.878 74.589h9.488l-19.419 28.246 20.854 29.901h-10.04l-16.551-23.723-17.103 23.723h-9.709l21.185-29.901-19.751-28.246h9.931l15.447 22.067 15.668-22.067zM436.464 103.607c0 17.434-12.247 29.46-29.46 29.46-17.212 0-29.46-12.026-29.46-29.46 0-17.323 12.248-29.239 29.46-29.239 17.213.001 29.46 11.917 29.46 29.239zm-50.314.111c0 12.799 8.717 21.626 20.854 21.626s20.854-8.827 20.854-21.626c0-12.688-8.717-21.516-20.854-21.516s-20.854 8.827-20.854 21.516zM452.131 132.736v-81.87h8.606v81.87h-8.606zM495.272 132.736l-23.061-58.147h9.158l18.536 49.21 18.426-49.21h8.717l-22.84 58.147h-8.936zM585.414 107.028H537.97c1.545 11.364 9.82 18.536 21.074 18.536 7.172 0 13.461-2.538 17.985-7.282l4.744 5.075c-5.517 6.179-13.682 9.71-23.392 9.71-17.102 0-28.908-12.026-28.908-29.35 0-17.323 11.917-29.349 28.798-29.349 18.758-.11 28.026 12.91 27.143 32.66zm-7.723-7.061c-.552-11.145-8.055-18.206-19.42-18.206-11.033 0-18.978 7.172-20.302 18.206h39.722z"/></g></svg>